<svg width="12" height="12" viewBox="0 0 12 12" fill="none" xmlns="http://www.w3.org/2000/svg">
<path d="M8.12679 6.00003L11.4773 2.64948C11.8885 2.23832 11.8885 1.57169 11.4773 1.16019L10.7327 0.415548C10.3215 0.00438757 9.65491 0.00438757 9.24341 0.415548L5.89286 3.76611L2.5423 0.415548C2.13114 0.00438757 1.46451 0.00438757 1.05301 0.415548L0.308371 1.16019C-0.10279 1.57135 -0.10279 2.23798 0.308371 2.64948L3.65893 6.00003L0.308371 9.35059C-0.10279 9.76175 -0.10279 10.4284 0.308371 10.8399L1.05301 11.5845C1.46417 11.9957 2.13114 11.9957 2.5423 11.5845L5.89286 8.23396L9.24341 11.5845C9.65458 11.9957 10.3215 11.9957 10.7327 11.5845L11.4773 10.8399C11.8885 10.4287 11.8885 9.76209 11.4773 9.35059L8.12679 6.00003Z" fill="#F4F5F7"/>
</svg>
